<svg width="64" height="64" viewBox="0 0 64 64" fill="none" xmlns="http://www.w3.org/2000/svg">
  <rect width="64" height="64" rx="12" fill="#1A9E9E"/>

  <!-- Enhanced weaving pattern with more threads and better definition -->
  <!-- Thread 1 -->
  <rect x="8" y="12" width="18" height="5" rx="2.5" fill="white"/>
  <rect x="28" y="12" width="12" height="5" rx="2.5" fill="white" opacity="0.4"/>
  <rect x="42" y="12" width="14" height="5" rx="2.5" fill="white"/>

  <!-- Thread 2 -->
  <rect x="8" y="19" width="12" height="5" rx="2.5" fill="white" opacity="0.4"/>
  <rect x="22" y="19" width="18" height="5" rx="2.5" fill="white"/>
  <rect x="42" y="19" width="14" height="5" rx="2.5" fill="white" opacity="0.4"/>

  <!-- Thread 3 -->
  <rect x="8" y="26" width="18" height="5" rx="2.5" fill="white"/>
  <rect x="28" y="26" width="12" height="5" rx="2.5" fill="white" opacity="0.4"/>
  <rect x="42" y="26" width="14" height="5" rx="2.5" fill="white"/>

  <!-- Thread 4 -->
  <rect x="8" y="33" width="12" height="5" rx="2.5" fill="white" opacity="0.4"/>
  <rect x="22" y="33" width="18" height="5" rx="2.5" fill="white"/>
  <rect x="42" y="33" width="14" height="5" rx="2.5" fill="white" opacity="0.4"/>

  <!-- Thread 5 (Center) -->
  <rect x="8" y="40" width="18" height="5" rx="2.5" fill="white"/>
  <rect x="28" y="40" width="12" height="5" rx="2.5" fill="white" opacity="0.4"/>
  <rect x="42" y="40" width="14" height="5" rx="2.5" fill="white"/>

  <!-- Thread 6 -->
  <rect x="8" y="47" width="12" height="5" rx="2.5" fill="white" opacity="0.4"/>
  <rect x="22" y="47" width="18" height="5" rx="2.5" fill="white"/>
  <rect x="42" y="47" width="14" height="5" rx="2.5" fill="white" opacity="0.4"/>
</svg>
