<!-- WEFT User/Profile Icon - Dark Mode -->
<svg width="64" height="64" viewBox="0 0 64 64" fill="none" xmlns="http://www.w3.org/2000/svg">
  <!-- Background -->
  <rect width="64" height="64" rx="12" fill="#27272A"/>
  
  <!-- User head -->
  <circle cx="32" cy="26" r="10" fill="#3DC9C9" opacity="0.15"/>
  <circle cx="32" cy="26" r="10" stroke="#3DC9C9" stroke-width="2"/>
  
  <!-- Head weaving pattern -->
  <rect x="27" y="23" width="5" height="2.5" rx="1.25" fill="#3DC9C9"/>
  <rect x="32" y="23" width="5" height="2.5" rx="1.25" fill="#3DC9C9" opacity="0.35"/>
  
  <rect x="27" y="26.5" width="5" height="2.5" rx="1.25" fill="#3DC9C9" opacity="0.35"/>
  <rect x="32" y="26.5" width="5" height="2.5" rx="1.25" fill="#3DC9C9"/>
  
  <!-- User shoulders/body -->
  <path d="M16 48 Q16 40 22 38 Q27 36 32 36 Q37 36 42 38 Q48 40 48 48 L48 52 L16 52 Z" fill="#3DC9C9" opacity="0.15"/>
  <path d="M16 48 Q16 40 22 38 Q27 36 32 36 Q37 36 42 38 Q48 40 48 48 L48 52 L16 52 Z" stroke="#3DC9C9" stroke-width="2"/>
  
  <!-- Body weaving pattern -->
  <rect x="20" y="42" width="8" height="3" rx="1.5" fill="#3DC9C9"/>
  <rect x="28" y="42" width="8" height="3" rx="1.5" fill="#3DC9C9" opacity="0.35"/>
  <rect x="36" y="42" width="8" height="3" rx="1.5" fill="#3DC9C9"/>
  
  <rect x="20" y="47" width="10" height="3" rx="1.5" fill="#3DC9C9" opacity="0.35"/>
  <rect x="30" y="47" width="4" height="3" rx="1.5" fill="#3DC9C9"/>
  <rect x="34" y="47" width="10" height="3" rx="1.5" fill="#3DC9C9" opacity="0.35"/>
</svg>
